<svg width="68" height="68" viewBox="0 0 68 68" fill="none" xmlns="http://www.w3.org/2000/svg">
<path d="M31.025 51.9917L20.9667 41.9334L25.075 37.8251L31.025 43.7751L42.925 31.8751L47.0333 35.9834L31.025 51.9917ZM14.1667 62.3334C12.6083 62.3334 11.2743 61.7786 10.1646 60.6688C9.05486 59.5591 8.5 58.2251 8.5 56.6667V17.0001C8.5 15.4417 9.05486 14.1077 10.1646 12.998C11.2743 11.8883 12.6083 11.3334 14.1667 11.3334H17V5.66675H22.6667V11.3334H45.3333V5.66675H51V11.3334H53.8333C55.3917 11.3334 56.7257 11.8883 57.8354 12.998C58.9451 14.1077 59.5 15.4417 59.5 17.0001V56.6667C59.5 58.2251 58.9451 59.5591 57.8354 60.6688C56.7257 61.7786 55.3917 62.3334 53.8333 62.3334H14.1667ZM14.1667 56.6667H53.8333V28.3334H14.1667V56.6667ZM14.1667 22.6667H53.8333V17.0001H14.1667V22.6667Z" fill="#33FF33"/>
</svg>
