<svg width="98" height="98" viewBox="0 0 98 98" fill="none" xmlns="http://www.w3.org/2000/svg">
<path d="M23.8868 69.8251C27.3577 67.1709 31.2368 65.0782 35.5243 63.547C39.8118 62.0157 44.3035 61.2501 48.9993 61.2501C53.6952 61.2501 58.1868 62.0157 62.4743 63.547C66.7618 65.0782 70.641 67.1709 74.1118 69.8251C76.4938 67.0348 78.3483 63.8702 79.6754 60.3313C81.0025 56.7924 81.666 53.0154 81.666 49.0001C81.666 39.9487 78.4844 32.2414 72.1212 25.8782C65.758 19.515 58.0507 16.3334 48.9993 16.3334C39.948 16.3334 32.2407 19.515 25.8775 25.8782C19.5143 32.2414 16.3327 39.9487 16.3327 49.0001C16.3327 53.0154 16.9962 56.7924 18.3233 60.3313C19.6504 63.8702 21.5049 67.0348 23.8868 69.8251ZM48.9993 53.0834C44.9841 53.0834 41.5983 51.7053 38.8421 48.949C36.0858 46.1928 34.7077 42.807 34.7077 38.7917C34.7077 34.7765 36.0858 31.3907 38.8421 28.6345C41.5983 25.8782 44.9841 24.5001 48.9993 24.5001C53.0146 24.5001 56.4004 25.8782 59.1566 28.6345C61.9129 31.3907 63.291 34.7765 63.291 38.7917C63.291 42.807 61.9129 46.1928 59.1566 48.949C56.4004 51.7053 53.0146 53.0834 48.9993 53.0834ZM48.9993 89.8334C43.3507 89.8334 38.0424 88.7615 33.0743 86.6178C28.1063 84.474 23.7848 81.5647 20.1098 77.8897C16.4348 74.2147 13.5254 69.8931 11.3816 64.9251C9.23789 59.957 8.16602 54.6487 8.16602 49.0001C8.16602 43.3515 9.23789 38.0431 11.3816 33.0751C13.5254 28.107 16.4348 23.7855 20.1098 20.1105C23.7848 16.4355 28.1063 13.5261 33.0743 11.3824C38.0424 9.23862 43.3507 8.16675 48.9993 8.16675C54.648 8.16675 59.9563 9.23862 64.9243 11.3824C69.8924 13.5261 74.2139 16.4355 77.8889 20.1105C81.5639 23.7855 84.4733 28.107 86.6171 33.0751C88.7608 38.0431 89.8327 43.3515 89.8327 49.0001C89.8327 54.6487 88.7608 59.957 86.6171 64.9251C84.4733 69.8931 81.5639 74.2147 77.8889 77.8897C74.2139 81.5647 69.8924 84.474 64.9243 86.6178C59.9563 88.7615 54.648 89.8334 48.9993 89.8334ZM48.9993 81.6667C52.6063 81.6667 56.0091 81.1393 59.2077 80.0845C62.4063 79.0296 65.3327 77.5154 67.9868 75.5417C65.3327 73.5681 62.4063 72.0539 59.2077 70.999C56.0091 69.9442 52.6063 69.4167 48.9993 69.4167C45.3924 69.4167 41.9896 69.9442 38.791 70.999C35.5924 72.0539 32.666 73.5681 30.0118 75.5417C32.666 77.5154 35.5924 79.0296 38.791 80.0845C41.9896 81.1393 45.3924 81.6667 48.9993 81.6667ZM48.9993 44.9167C50.7688 44.9167 52.232 44.3383 53.3889 43.1813C54.5459 42.0244 55.1243 40.5612 55.1243 38.7917C55.1243 37.0223 54.5459 35.5591 53.3889 34.4022C52.232 33.2452 50.7688 32.6667 48.9993 32.6667C47.2299 32.6667 45.7667 33.2452 44.6098 34.4022C43.4528 35.5591 42.8743 37.0223 42.8743 38.7917C42.8743 40.5612 43.4528 42.0244 44.6098 43.1813C45.7667 44.3383 47.2299 44.9167 48.9993 44.9167Z" fill="#33FF33"/>
</svg>
