<svg width="98" height="98" viewBox="0 0 98 98" fill="none" xmlns="http://www.w3.org/2000/svg">
<path d="M49.0006 89.8334C39.5409 87.4515 31.7316 82.024 25.5725 73.5511C19.4135 65.0782 16.334 55.6695 16.334 45.3251V20.4167L49.0006 8.16675L81.6673 20.4167V45.3251C81.6673 55.6695 78.5878 65.0782 72.4288 73.5511C66.2697 82.024 58.4604 87.4515 49.0006 89.8334ZM49.0006 81.2584C55.602 79.2168 61.1145 75.1845 65.5381 69.1615C69.9618 63.1386 72.5479 56.4181 73.2965 49.0001H49.0006V16.8438L24.5007 26.0313V47.1626C24.5007 47.639 24.5687 48.2515 24.7048 49.0001H49.0006V81.2584Z" fill="#33FF33"/>
</svg>
