<svg width="104" height="98" viewBox="0 0 104 98" fill="none" xmlns="http://www.w3.org/2000/svg">
<path d="M86.45 85.75C77.4222 85.75 68.5028 83.8955 59.6917 80.1865C50.8806 76.4774 42.8639 71.2201 35.6417 64.4146C28.4194 57.609 22.8403 50.0549 18.9042 41.7521C14.9681 33.4493 13 25.0444 13 16.5375C13 15.3125 13.4333 14.2917 14.3 13.475C15.1667 12.6583 16.25 12.25 17.55 12.25H35.1C36.1111 12.25 37.0139 12.5733 37.8083 13.2198C38.6028 13.8663 39.0722 14.6319 39.2167 15.5167L42.0333 29.8083C42.1778 30.8972 42.1417 31.816 41.925 32.5646C41.7083 33.3132 41.3111 33.9597 40.7333 34.5042L30.225 44.5083C31.6694 47.0264 33.3847 49.4594 35.3708 51.8073C37.3569 54.1552 39.5417 56.4181 41.925 58.5958C44.1639 60.7056 46.5111 62.6622 48.9667 64.4656C51.4222 66.2691 54.0222 67.9194 56.7667 69.4167L66.95 59.8208C67.6 59.2083 68.4486 58.749 69.4958 58.4427C70.5431 58.1365 71.5722 58.0514 72.5833 58.1875L87.5333 61.0458C88.5444 61.3181 89.375 61.8115 90.025 62.526C90.675 63.2406 91 64.0403 91 64.925V81.4625C91 82.6875 90.5667 83.7083 89.7 84.525C88.8333 85.3417 87.75 85.75 86.45 85.75ZM26.1083 36.75L33.2583 30.0125L31.4167 20.4167H21.775C22.1361 23.2069 22.6417 25.9632 23.2917 28.6854C23.9417 31.4076 24.8806 34.0958 26.1083 36.75ZM64.8917 73.2958C67.7083 74.4528 70.5792 75.3715 73.5042 76.0521C76.4292 76.7326 79.3722 77.175 82.3333 77.3792V68.3958L72.15 66.4562L64.8917 73.2958Z" fill="#33FF33"/>
</svg>
