<svg width="68" height="68" viewBox="0 0 68 68" fill="none" xmlns="http://www.w3.org/2000/svg">
<g clip-path="url(#clip0_186_1576)">
<path d="M34 17.9917L25.9958 10.0583L29.9625 6.02083L34 10.0583L44.0583 0L48.025 3.96667L34 17.9917ZM11.3333 68C10.5306 68 9.85764 67.7285 9.31458 67.1854C8.77153 66.6424 8.5 65.9694 8.5 65.1667V42.5L14.45 25.5C14.7333 24.65 15.241 23.9653 15.9729 23.4458C16.7049 22.9264 17.5194 22.6667 18.4167 22.6667H49.5833C50.4806 22.6667 51.2951 22.9264 52.0271 23.4458C52.759 23.9653 53.2667 24.65 53.55 25.5L59.5 42.5V65.1667C59.5 65.9694 59.2285 66.6424 58.6854 67.1854C58.1424 67.7285 57.4694 68 56.6667 68H53.8333C53.0306 68 52.3576 67.7285 51.8146 67.1854C51.2715 66.6424 51 65.9694 51 65.1667V62.3333H17V65.1667C17 65.9694 16.7285 66.6424 16.1854 67.1854C15.6424 67.7285 14.9694 68 14.1667 68H11.3333ZM16.4333 36.8333H51.5667L48.5917 28.3333H19.4083L16.4333 36.8333ZM21.25 53.8333C22.4306 53.8333 23.434 53.4201 24.2604 52.5938C25.0868 51.7674 25.5 50.7639 25.5 49.5833C25.5 48.4028 25.0868 47.3993 24.2604 46.5729C23.434 45.7465 22.4306 45.3333 21.25 45.3333C20.0694 45.3333 19.066 45.7465 18.2396 46.5729C17.4132 47.3993 17 48.4028 17 49.5833C17 50.7639 17.4132 51.7674 18.2396 52.5938C19.066 53.4201 20.0694 53.8333 21.25 53.8333ZM46.75 53.8333C47.9306 53.8333 48.934 53.4201 49.7604 52.5938C50.5868 51.7674 51 50.7639 51 49.5833C51 48.4028 50.5868 47.3993 49.7604 46.5729C48.934 45.7465 47.9306 45.3333 46.75 45.3333C45.5694 45.3333 44.566 45.7465 43.7396 46.5729C42.9132 47.3993 42.5 48.4028 42.5 49.5833C42.5 50.7639 42.9132 51.7674 43.7396 52.5938C44.566 53.4201 45.5694 53.8333 46.75 53.8333ZM14.1667 56.6667H53.8333V42.5H14.1667V56.6667Z" fill="#33FF33"/>
</g>
<defs>
<clipPath id="clip0_186_1576">
<rect width="68" height="68" fill="white"/>
</clipPath>
</defs>
</svg>
