<svg width="98" height="98" viewBox="0 0 98 98" fill="none" xmlns="http://www.w3.org/2000/svg">
<path d="M24.5007 89.8333C22.2548 89.8333 20.3322 89.0336 18.7329 87.4343C17.1336 85.835 16.334 83.9124 16.334 81.6666V40.8333C16.334 38.5874 17.1336 36.6648 18.7329 35.0655C20.3322 33.4662 22.2548 32.6666 24.5007 32.6666H28.584V24.4999C28.584 18.8513 30.5746 14.0364 34.5559 10.0551C38.5371 6.07388 43.352 4.08325 49.0006 4.08325C54.6493 4.08325 59.4642 6.07388 63.4454 10.0551C67.4267 14.0364 69.4173 18.8513 69.4173 24.4999V32.6666H73.5006C75.7465 32.6666 77.669 33.4662 79.2684 35.0655C80.8677 36.6648 81.6673 38.5874 81.6673 40.8333V81.6666C81.6673 83.9124 80.8677 85.835 79.2684 87.4343C77.669 89.0336 75.7465 89.8333 73.5006 89.8333H24.5007ZM24.5007 81.6666H73.5006V40.8333H24.5007V81.6666ZM49.0006 69.4166C51.2465 69.4166 53.1691 68.6169 54.7684 67.0176C56.3677 65.4183 57.1673 63.4958 57.1673 61.2499C57.1673 59.0041 56.3677 57.0815 54.7684 55.4822C53.1691 53.8829 51.2465 53.0833 49.0006 53.0833C46.7548 53.0833 44.8322 53.8829 43.2329 55.4822C41.6336 57.0815 40.834 59.0041 40.834 61.2499C40.834 63.4958 41.6336 65.4183 43.2329 67.0176C44.8322 68.6169 46.7548 69.4166 49.0006 69.4166ZM36.7506 32.6666H61.2506V24.4999C61.2506 21.0971 60.0597 18.2048 57.6777 15.8228C55.2958 13.4409 52.4034 12.2499 49.0006 12.2499C45.5979 12.2499 42.7055 13.4409 40.3236 15.8228C37.9416 18.2048 36.7506 21.0971 36.7506 24.4999V32.6666Z" fill="#33FF33"/>
</svg>
