<svg width="104" height="98" viewBox="0 0 104 98" fill="none" xmlns="http://www.w3.org/2000/svg">
<path d="M17.3327 81.6666C14.9493 81.6666 12.9091 80.8669 11.2118 79.2676C9.51463 77.6683 8.66602 75.7457 8.66602 73.4999V24.4999C8.66602 22.2541 9.51463 20.3315 11.2118 18.7322C12.9091 17.1329 14.9493 16.3333 17.3327 16.3333H86.666C89.0494 16.3333 91.0896 17.1329 92.7869 18.7322C94.4841 20.3315 95.3327 22.2541 95.3327 24.4999V73.4999C95.3327 75.7457 94.4841 77.6683 92.7869 79.2676C91.0896 80.8669 89.0494 81.6666 86.666 81.6666H17.3327ZM51.9994 53.0832L17.3327 32.6666V73.4999H86.666V32.6666L51.9994 53.0832ZM51.9994 44.9166L86.666 24.4999H17.3327L51.9994 44.9166ZM17.3327 32.6666V24.4999V73.4999V32.6666Z" fill="#33FF33"/>
</svg>
