<svg width="103" height="98" viewBox="0 0 103 98" fill="none" xmlns="http://www.w3.org/2000/svg">
<path d="M25.7507 57.1668H60.084V49.0001H25.7507V57.1668ZM25.7507 44.9168H77.2507V36.7501H25.7507V44.9168ZM25.7507 32.6667H77.2507V24.5001H25.7507V32.6667ZM8.58398 89.8334V16.3334C8.58398 14.0876 9.42444 12.165 11.1053 10.5657C12.7862 8.9664 14.8069 8.16675 17.1673 8.16675H85.834C88.1944 8.16675 90.2151 8.9664 91.896 10.5657C93.5769 12.165 94.4173 14.0876 94.4173 16.3334V65.3334C94.4173 67.5793 93.5769 69.5018 91.896 71.1011C90.2151 72.7004 88.1944 73.5001 85.834 73.5001H25.7507L8.58398 89.8334ZM22.1027 65.3334H85.834V16.3334H17.1673V69.9272L22.1027 65.3334Z" fill="#33FF33"/>
</svg>
