<svg width="68" height="68" viewBox="0 0 68 68" fill="none" xmlns="http://www.w3.org/2000/svg">
<path d="M31.166 59.5V53.8333H53.8327V33.7167C53.8327 28.1917 51.9084 23.5049 48.0598 19.6562C44.2112 15.8076 39.5243 13.8833 33.9993 13.8833C28.4743 13.8833 23.7875 15.8076 19.9389 19.6562C16.0903 23.5049 14.166 28.1917 14.166 33.7167V51H11.3327C9.77435 51 8.44032 50.4451 7.3306 49.3354C6.22088 48.2257 5.66602 46.8917 5.66602 45.3333V39.6667C5.66602 38.675 5.91393 37.7424 6.40977 36.8687C6.9056 35.9951 7.60213 35.2986 8.49935 34.7792L8.71185 31.025C9.08963 27.8139 10.0223 24.8389 11.5098 22.1C12.9973 19.3611 14.8625 16.9764 17.1056 14.9458C19.3487 12.9153 21.9223 11.3333 24.8264 10.2C27.7306 9.06667 30.7882 8.5 33.9993 8.5C37.2105 8.5 40.2563 9.06667 43.1368 10.2C46.0174 11.3333 48.591 12.9035 50.8577 14.9104C53.1243 16.9174 54.9896 19.2903 56.4535 22.0292C57.9174 24.7681 58.8618 27.7431 59.2868 30.9542L59.4993 34.6375C60.3966 35.0625 61.0931 35.7 61.5889 36.55C62.0848 37.4 62.3327 38.2972 62.3327 39.2417V45.7583C62.3327 46.7028 62.0848 47.6 61.5889 48.45C61.0931 49.3 60.3966 49.9375 59.4993 50.3625V53.8333C59.4993 55.3917 58.9445 56.7257 57.8348 57.8354C56.725 58.9451 55.391 59.5 53.8327 59.5H31.166ZM25.4993 39.6667C24.6966 39.6667 24.0237 39.3951 23.4806 38.8521C22.9375 38.309 22.666 37.6361 22.666 36.8333C22.666 36.0306 22.9375 35.3576 23.4806 34.8146C24.0237 34.2715 24.6966 34 25.4993 34C26.3021 34 26.975 34.2715 27.5181 34.8146C28.0612 35.3576 28.3327 36.0306 28.3327 36.8333C28.3327 37.6361 28.0612 38.309 27.5181 38.8521C26.975 39.3951 26.3021 39.6667 25.4993 39.6667ZM42.4993 39.6667C41.6966 39.6667 41.0237 39.3951 40.4806 38.8521C39.9375 38.309 39.666 37.6361 39.666 36.8333C39.666 36.0306 39.9375 35.3576 40.4806 34.8146C41.0237 34.2715 41.6966 34 42.4993 34C43.3021 34 43.975 34.2715 44.5181 34.8146C45.0612 35.3576 45.3327 36.0306 45.3327 36.8333C45.3327 37.6361 45.0612 38.309 44.5181 38.8521C43.975 39.3951 43.3021 39.6667 42.4993 39.6667ZM17.0702 35.275C16.7396 30.2694 18.2507 25.9722 21.6035 22.3833C24.9563 18.7944 29.1355 17 34.141 17C38.3438 17 42.0389 18.334 45.2264 21.0021C48.4139 23.6701 50.3382 27.0819 50.9993 31.2375C46.7021 31.1903 42.7473 30.0333 39.1348 27.7667C35.5223 25.5 32.748 22.4306 30.8118 18.5583C30.0563 22.3361 28.4625 25.7007 26.0306 28.6521C23.5987 31.6035 20.6118 33.8111 17.0702 35.275Z" fill="#33FF33"/>
</svg>
