<svg width="68" height="68" viewBox="0 0 68 68" fill="none" xmlns="http://www.w3.org/2000/svg">
<path d="M31.166 48.1667H36.8327V31.1667H31.166V48.1667ZM33.9993 25.5001C34.8021 25.5001 35.475 25.2286 36.0181 24.6855C36.5612 24.1424 36.8327 23.4695 36.8327 22.6667C36.8327 21.864 36.5612 21.1911 36.0181 20.648C35.475 20.1049 34.8021 19.8334 33.9993 19.8334C33.1966 19.8334 32.5237 20.1049 31.9806 20.648C31.4375 21.1911 31.166 21.864 31.166 22.6667C31.166 23.4695 31.4375 24.1424 31.9806 24.6855C32.5237 25.2286 33.1966 25.5001 33.9993 25.5001ZM33.9993 62.3334C30.0799 62.3334 26.3966 61.5897 22.9493 60.1022C19.5021 58.6147 16.5035 56.5959 13.9535 54.0459C11.4035 51.4959 9.38477 48.4973 7.89727 45.0501C6.40977 41.6029 5.66602 37.9195 5.66602 34.0001C5.66602 30.0806 6.40977 26.3973 7.89727 22.9501C9.38477 19.5029 11.4035 16.5042 13.9535 13.9542C16.5035 11.4042 19.5021 9.3855 22.9493 7.898C26.3966 6.4105 30.0799 5.66675 33.9993 5.66675C37.9188 5.66675 41.6021 6.4105 45.0493 7.898C48.4966 9.3855 51.4952 11.4042 54.0452 13.9542C56.5952 16.5042 58.6139 19.5029 60.1014 22.9501C61.5889 26.3973 62.3327 30.0806 62.3327 34.0001C62.3327 37.9195 61.5889 41.6029 60.1014 45.0501C58.6139 48.4973 56.5952 51.4959 54.0452 54.0459C51.4952 56.5959 48.4966 58.6147 45.0493 60.1022C41.6021 61.5897 37.9188 62.3334 33.9993 62.3334ZM33.9993 56.6667C40.3271 56.6667 45.6868 54.4709 50.0785 50.0792C54.4702 45.6876 56.666 40.3279 56.666 34.0001C56.666 27.6723 54.4702 22.3126 50.0785 17.9209C45.6868 13.5292 40.3271 11.3334 33.9993 11.3334C27.6716 11.3334 22.3118 13.5292 17.9202 17.9209C13.5285 22.3126 11.3327 27.6723 11.3327 34.0001C11.3327 40.3279 13.5285 45.6876 17.9202 50.0792C22.3118 54.4709 27.6716 56.6667 33.9993 56.6667Z" fill="#00FF00"/>
</svg>
