<svg width="68" height="68" viewBox="0 0 68 68" fill="none" xmlns="http://www.w3.org/2000/svg">
<path d="M2.83398 59.5001L34.0007 5.66675L65.1673 59.5001H2.83398ZM12.609 53.8334H55.3923L34.0007 17.0001L12.609 53.8334ZM34.0007 51.0001C34.8034 51.0001 35.4763 50.7286 36.0194 50.1855C36.5625 49.6424 36.834 48.9695 36.834 48.1668C36.834 47.364 36.5625 46.6911 36.0194 46.148C35.4763 45.6049 34.8034 45.3334 34.0007 45.3334C33.1979 45.3334 32.525 45.6049 31.9819 46.148C31.4388 46.6911 31.1673 47.364 31.1673 48.1668C31.1673 48.9695 31.4388 49.6424 31.9819 50.1855C32.525 50.7286 33.1979 51.0001 34.0007 51.0001ZM31.1673 42.5001H36.834V28.3334H31.1673V42.5001Z" fill="#33FF33"/>
</svg>
