<svg width="68" height="68" viewBox="0 0 68 68" fill="none" xmlns="http://www.w3.org/2000/svg">
<path d="M22.6673 51.0001H45.334V45.3334H22.6673V51.0001ZM22.6673 39.6667H45.334V34.0001H22.6673V39.6667ZM17.0007 62.3334C15.4423 62.3334 14.1083 61.7786 12.9986 60.6688C11.8888 59.5591 11.334 58.2251 11.334 56.6667V11.3334C11.334 9.77508 11.8888 8.44105 12.9986 7.33133C14.1083 6.22161 15.4423 5.66675 17.0007 5.66675H39.6673L56.6673 22.6667V56.6667C56.6673 58.2251 56.1125 59.5591 55.0027 60.6688C53.893 61.7786 52.559 62.3334 51.0007 62.3334H17.0007ZM36.834 25.5001V11.3334H17.0007V56.6667H51.0007V25.5001H36.834Z" fill="#33FF33"/>
</svg>
