<svg width="68" height="68" viewBox="0 0 68 68" fill="none" xmlns="http://www.w3.org/2000/svg">
<path d="M31.2372 59.5V53.4083C28.7345 52.8417 26.574 51.7556 24.756 50.15C22.9379 48.5444 21.6039 46.2778 20.7539 43.35L25.9956 41.225C26.7039 43.4917 27.7546 45.2153 29.1477 46.3958C30.5407 47.5764 32.3706 48.1667 34.6372 48.1667C36.5734 48.1667 38.2143 47.7299 39.5602 46.8563C40.906 45.9826 41.5789 44.625 41.5789 42.7833C41.5789 41.1306 41.0595 39.8201 40.0206 38.8521C38.9817 37.884 36.5734 36.7861 32.7956 35.5583C28.7345 34.2833 25.9484 32.7604 24.4372 30.9896C22.9261 29.2188 22.1706 27.0583 22.1706 24.5083C22.1706 21.4389 23.1622 19.0542 25.1456 17.3542C27.1289 15.6542 29.1595 14.6861 31.2372 14.45V8.5H36.9039V14.45C39.265 14.8278 41.2129 15.6896 42.7477 17.0354C44.2824 18.3813 45.4039 20.0222 46.1122 21.9583L40.8706 24.225C40.3039 22.7139 39.5011 21.5806 38.4622 20.825C37.4234 20.0694 36.0067 19.6917 34.2122 19.6917C32.1345 19.6917 30.5525 20.1521 29.4664 21.0729C28.3803 21.9937 27.8372 23.1389 27.8372 24.5083C27.8372 26.0667 28.5456 27.2944 29.9622 28.1917C31.3789 29.0889 33.8345 30.0333 37.3289 31.025C40.5872 31.9694 43.0546 33.4688 44.731 35.5229C46.4074 37.5771 47.2456 39.95 47.2456 42.6417C47.2456 45.9944 46.2539 48.5444 44.2706 50.2917C42.2872 52.0389 39.8317 53.125 36.9039 53.55V59.5H31.2372Z" fill="#33FF33"/>
</svg>
