<svg width="68" height="68" viewBox="0 0 68 68" fill="none" xmlns="http://www.w3.org/2000/svg">
<path d="M17 62.3334C14.6389 62.3334 12.6319 61.507 10.9792 59.8542C9.32639 58.2015 8.5 56.1945 8.5 53.8334V45.3334H17V5.66675H59.5V53.8334C59.5 56.1945 58.6736 58.2015 57.0208 59.8542C55.3681 61.507 53.3611 62.3334 51 62.3334H17ZM51 56.6667C51.8028 56.6667 52.4757 56.3952 53.0187 55.8522C53.5618 55.3091 53.8333 54.6362 53.8333 53.8334V11.3334H22.6667V45.3334H48.1667V53.8334C48.1667 54.6362 48.4382 55.3091 48.9813 55.8522C49.5243 56.3952 50.1972 56.6667 51 56.6667ZM25.5 25.5001V19.8334H51V25.5001H25.5ZM25.5 34.0001V28.3334H51V34.0001H25.5ZM17 56.6667H42.5V51.0001H14.1667V53.8334C14.1667 54.6362 14.4382 55.3091 14.9812 55.8522C15.5243 56.3952 16.1972 56.6667 17 56.6667ZM17 56.6667H14.1667H42.5H17Z" fill="#33FF33"/>
</svg>
