<svg width="56" height="56" viewBox="0 0 56 56" fill="none" xmlns="http://www.w3.org/2000/svg">
<g id="info_FILL0_wght400_GRAD0_opsz24 1">
<path id="Vector" d="M25.667 39.6667H30.3337V25.6667H25.667V39.6667ZM28.0003 21.0001C28.6614 21.0001 29.2156 20.7765 29.6628 20.3292C30.11 19.882 30.3337 19.3279 30.3337 18.6667C30.3337 18.0056 30.11 17.4515 29.6628 17.0042C29.2156 16.557 28.6614 16.3334 28.0003 16.3334C27.3392 16.3334 26.785 16.557 26.3378 17.0042C25.8906 17.4515 25.667 18.0056 25.667 18.6667C25.667 19.3279 25.8906 19.882 26.3378 20.3292C26.785 20.7765 27.3392 21.0001 28.0003 21.0001ZM28.0003 51.3334C24.7725 51.3334 21.7392 50.7209 18.9003 49.4959C16.0614 48.2709 13.592 46.6084 11.492 44.5084C9.39199 42.4084 7.72949 39.939 6.50449 37.1001C5.27949 34.2612 4.66699 31.2279 4.66699 28.0001C4.66699 24.7723 5.27949 21.739 6.50449 18.9001C7.72949 16.0612 9.39199 13.5917 11.492 11.4917C13.592 9.39175 16.0614 7.72925 18.9003 6.50425C21.7392 5.27925 24.7725 4.66675 28.0003 4.66675C31.2281 4.66675 34.2614 5.27925 37.1003 6.50425C39.9392 7.72925 42.4087 9.39175 44.5087 11.4917C46.6087 13.5917 48.2712 16.0612 49.4962 18.9001C50.7212 21.739 51.3337 24.7723 51.3337 28.0001C51.3337 31.2279 50.7212 34.2612 49.4962 37.1001C48.2712 39.939 46.6087 42.4084 44.5087 44.5084C42.4087 46.6084 39.9392 48.2709 37.1003 49.4959C34.2614 50.7209 31.2281 51.3334 28.0003 51.3334ZM28.0003 46.6667C33.2114 46.6667 37.6253 44.8584 41.242 41.2417C44.8587 37.6251 46.667 33.2112 46.667 28.0001C46.667 22.789 44.8587 18.3751 41.242 14.7584C37.6253 11.1417 33.2114 9.33341 28.0003 9.33341C22.7892 9.33341 18.3753 11.1417 14.7587 14.7584C11.142 18.3751 9.33366 22.789 9.33366 28.0001C9.33366 33.2112 11.142 37.6251 14.7587 41.2417C18.3753 44.8584 22.7892 46.6667 28.0003 46.6667Z" fill="#00FF00"/>
</g>
</svg>
