<svg width="82" height="82" viewBox="0 0 82 82" fill="none" xmlns="http://www.w3.org/2000/svg">
<g id="gpp_maybe_FILL0_wght400_GRAD0_opsz24 1">
<path id="Vector" d="M41.0003 54.6666C41.9684 54.6666 42.7798 54.3391 43.4347 53.6843C44.0896 53.0294 44.417 52.218 44.417 51.2499C44.417 50.2819 44.0896 49.4704 43.4347 48.8155C42.7798 48.1607 41.9684 47.8332 41.0003 47.8332C40.0323 47.8332 39.2208 48.1607 38.5659 48.8155C37.9111 49.4704 37.5837 50.2819 37.5837 51.2499C37.5837 52.218 37.9111 53.0294 38.5659 53.6843C39.2208 54.3391 40.0323 54.6666 41.0003 54.6666ZM37.5837 40.9999H44.417V23.9166H37.5837V40.9999ZM41.0003 75.1666C33.085 73.1735 26.5507 68.6322 21.3972 61.5426C16.2437 54.453 13.667 46.5805 13.667 37.9249V17.0832L41.0003 6.83325L68.3337 17.0832V37.9249C68.3337 46.5805 65.7569 54.453 60.6034 61.5426C55.45 68.6322 48.9156 73.1735 41.0003 75.1666ZM41.0003 67.9916C46.9225 66.1124 51.8198 62.3541 55.692 56.7166C59.5642 51.0791 61.5003 44.8152 61.5003 37.9249V21.7812L41.0003 14.0937L20.5003 21.7812V37.9249C20.5003 44.8152 22.4364 51.0791 26.3087 56.7166C30.1809 62.3541 35.0781 66.1124 41.0003 67.9916Z" fill="#09E509"/>
</g>
</svg>
